<svg xmlns="http://www.w3.org/2000/svg" viewBox="0 0 401.99 438.53"><defs><style>.cls-1{fill:#ff4a3d;}</style></defs><title>gravity-logoAsset 1</title><g id="Layer_2" data-name="Layer 2"><g id="Capa_1" data-name="Capa 1"><path class="cls-1" d="M399.42,75.65a8.88,8.88,0,0,0-6.56-2.56H304.63l-20-47.68q-4.29-10.56-15.41-18T246.68,0H155.31q-11.42,0-22.55,7.42t-15.42,18l-20,47.68H9.14a8.89,8.89,0,0,0-6.57,2.56A8.93,8.93,0,0,0,0,82.22V100.5a8.8,8.8,0,0,0,9.14,9.13h27.4v271.8q0,23.7,13.42,40.4t32.26,16.7H319.77q18.84,0,32.26-17.27t13.42-41V109.63h27.41a8.8,8.8,0,0,0,9.13-9.14V82.22A8.93,8.93,0,0,0,399.42,75.65ZM151,39.68a8.06,8.06,0,0,1,4.86-3.14h90.5a8.06,8.06,0,0,1,4.85,3.14L265,73.08H137ZM328.9,380.29a32.44,32.44,0,0,1-2,11.56,25.77,25.77,0,0,1-4.15,7.71c-1.43,1.62-2.42,2.42-3,2.42H82.22c-.57,0-1.56-.8-3-2.42a25.56,25.56,0,0,1-4.14-7.71,32.26,32.26,0,0,1-2-11.56V109.63H328.9V380.29Z"/><path class="cls-1" d="M118.77,347.17H137a8.78,8.78,0,0,0,9.14-9.13V173.58a8.78,8.78,0,0,0-9.14-9.13H118.77a8.77,8.77,0,0,0-9.13,9.13V338a8.78,8.78,0,0,0,9.13,9.14Z"/><path class="cls-1" d="M191.86,347.17h18.27a8.78,8.78,0,0,0,9.13-9.13V173.58a8.78,8.78,0,0,0-9.13-9.13H191.86a8.77,8.77,0,0,0-9.13,9.13V338a8.78,8.78,0,0,0,9.13,9.14Z"/><path class="cls-1" d="M265,347.17h18.27a8.77,8.77,0,0,0,9.13-9.13V173.58a8.77,8.77,0,0,0-9.13-9.13H265a8.78,8.78,0,0,0-9.14,9.13V338a8.8,8.8,0,0,0,9.14,9.14Z"/></g></g></svg>