<svg xmlns="http://www.w3.org/2000/svg" viewBox="0 0 401 398.98"><defs><style>.cls-1{fill:#009fb7;}</style></defs><title>gravity-logoAsset 1</title><g id="Layer_2" data-name="Layer 2"><g id="Layer_1-2" data-name="Layer 1"><path class="cls-1" d="M370.11,250.39a10,10,0,0,0-10,10v88.68a30,30,0,0,1-30,30H49.93a30,30,0,0,1-30-30V88.8a30,30,0,0,1,30-30h88.68a10,10,0,1,0,0-20H49.93A50,50,0,0,0,0,88.8V349.05A50,50,0,0,0,49.93,399H330.16a50,50,0,0,0,49.93-49.93V260.37A10,10,0,0,0,370.11,250.39Z"/><path class="cls-1" d="M376.14,13.16a45,45,0,0,0-63.56,0L134.41,191.34a10,10,0,0,0-2.57,4.39l-23.43,84.59a10,10,0,0,0,12.29,12.3l84.59-23.44a10,10,0,0,0,4.4-2.56L387.86,88.44a45,45,0,0,0,0-63.56Zm-220,184.67L302,52l47,47L203.19,244.86Zm-9.4,18.85,37.58,37.58-52,14.39Zm227-142.36-10.6,10.59-47-47,10.6-10.59a25,25,0,0,1,35.3,0L373.74,39A25,25,0,0,1,373.74,74.32Z"/></g></g></svg>